<svg width="20" height="20" viewBox="0 0 20 20" fill="none" xmlns="http://www.w3.org/2000/svg">
<path d="M14.9023 16.0805C13.4845 16.9794 11.8032 17.5 10.0003 17.5C5.50681 17.5 1.7685 14.2668 0.984741 10C1.34864 8.01886 2.34947 6.26059 3.7671 4.94532L1.16142 2.33965L2.33994 1.16113L18.8391 17.6603L17.6606 18.8388L14.9023 16.0805ZM4.94637 6.12459C3.83898 7.1333 3.03154 8.47251 2.68569 10C3.45022 13.3766 6.47054 15.8333 10.0003 15.8333C11.3331 15.8333 12.5934 15.483 13.687 14.8652L11.9967 13.1749C11.4186 13.5392 10.734 13.75 10.0003 13.75C7.92919 13.75 6.25026 12.071 6.25026 10C6.25026 9.26617 6.46102 8.58159 6.8253 8.00352L4.94637 6.12459ZM10.7616 11.9398L8.06042 9.23867C7.96779 9.47451 7.91692 9.73126 7.91692 10C7.91692 11.1506 8.84971 12.0833 10.0003 12.0833C10.269 12.0833 10.5258 12.0324 10.7616 11.9398ZM17.339 13.8269L16.1467 12.6346C16.6933 11.8555 17.0962 10.9653 17.3148 10C16.5503 6.62332 13.53 4.16664 10.0003 4.16664C9.29537 4.16664 8.61079 4.26462 7.96045 4.44832L6.64542 3.1333C7.68443 2.7245 8.81612 2.49997 10.0003 2.49997C14.4937 2.49997 18.232 5.73311 19.0158 10C18.7556 11.4163 18.1699 12.7188 17.339 13.8269ZM9.76912 6.25698C9.84554 6.25233 9.92262 6.24997 10.0003 6.24997C12.0713 6.24997 13.7503 7.92891 13.7503 10C13.7503 10.0776 13.7479 10.1547 13.7433 10.2311L9.76912 6.25698Z" fill="#808080"/>
</svg>
