<svg width="15" height="16" viewBox="0 0 15 16" fill="none" xmlns="http://www.w3.org/2000/svg">
<path fill-rule="evenodd" clip-rule="evenodd" d="M2.79029 10.1653C3.37634 9.57924 4.1712 9.25 5 9.25H10C10.8288 9.25 11.6237 9.57924 12.2097 10.1653C12.7958 10.7513 13.125 11.5462 13.125 12.375V13.625C13.125 13.9702 12.8452 14.25 12.5 14.25C12.1548 14.25 11.875 13.9702 11.875 13.625V12.375C11.875 11.8777 11.6775 11.4008 11.3258 11.0492C10.9742 10.6975 10.4973 10.5 10 10.5H5C4.50272 10.5 4.02581 10.6975 3.67417 11.0492C3.32254 11.4008 3.125 11.8777 3.125 12.375V13.625C3.125 13.9702 2.84518 14.25 2.5 14.25C2.15482 14.25 1.875 13.9702 1.875 13.625V12.375C1.875 11.5462 2.20424 10.7513 2.79029 10.1653Z" fill="#1B1B1E"/>
<path fill-rule="evenodd" clip-rule="evenodd" d="M7.5 3C6.46447 3 5.625 3.83947 5.625 4.875C5.625 5.91053 6.46447 6.75 7.5 6.75C8.53553 6.75 9.375 5.91053 9.375 4.875C9.375 3.83947 8.53553 3 7.5 3ZM4.375 4.875C4.375 3.14911 5.77411 1.75 7.5 1.75C9.22589 1.75 10.625 3.14911 10.625 4.875C10.625 6.60089 9.22589 8 7.5 8C5.77411 8 4.375 6.60089 4.375 4.875Z" fill="#1B1B1E"/>
</svg>
