<svg width="16" height="18" viewBox="0 0 16 18" fill="none" xmlns="http://www.w3.org/2000/svg">
<path d="M10.5 1.53333C9.7973 1.53315 9.10433 1.70856 8.47662 2.04549C7.84892 2.38242 7.30393 2.8715 6.88533 3.47355C6.46673 4.07559 6.18617 4.77386 6.06611 5.51238C5.94606 6.25091 5.98986 7.00917 6.194 7.72639L1 13.2667V16.4667H4L9.194 10.9264C9.81295 11.1268 10.4651 11.1825 11.1061 11.0897C11.7471 10.997 12.3617 10.7579 12.9082 10.3888C13.4548 10.0197 13.9202 9.52931 14.273 8.95098C14.6257 8.37265 14.8575 7.72 14.9524 7.0375C15.0472 6.35501 15.0031 5.65871 14.8229 4.99607C14.6427 4.33343 14.3307 3.72001 13.9081 3.19762C13.4855 2.67524 12.9624 2.25616 12.3742 1.96896C11.7861 1.68175 11.1468 1.53317 10.5 1.53333ZM10.5 10.0667C10.1558 10.0665 9.81342 10.0122 9.484 9.90559L8.9105 9.71999L8.487 10.1717L6.8965 11.8683L6.207 11.1333L5.5 11.8875L6.1895 12.6229L5.3965 13.4688L4.707 12.7333L4 13.4875L4.6895 14.2229L3.586 15.4H2V13.7083L6.901 8.48053L7.325 8.02879L7.151 7.41706C6.93729 6.66559 6.95117 5.86137 7.19068 5.1188C7.43018 4.37623 7.8831 3.73313 8.48502 3.28097C9.08694 2.8288 9.8072 2.59061 10.5433 2.60027C11.2795 2.60994 11.994 2.86696 12.5854 3.33477C13.1767 3.80259 13.6146 4.45739 13.8369 5.20602C14.0592 5.95465 14.0545 6.75899 13.8236 7.50462C13.5926 8.25026 13.1471 8.89922 12.5504 9.35919C11.9537 9.81916 11.2362 10.0667 10.5 10.0667Z" fill="black"/>
<path d="M11 6.86673C11.5523 6.86673 12 6.38917 12 5.80007C12 5.21096 11.5523 4.7334 11 4.7334C10.4477 4.7334 10 5.21096 10 5.80007C10 6.38917 10.4477 6.86673 11 6.86673Z" fill="black"/>
</svg>
